<svg id="Layer_1" data-name="Layer 1" xmlns="http://www.w3.org/2000/svg" viewBox="0 0 154.3 142.13"><defs><style>.cls-1{fill:#fff;}</style></defs><title>home_stat2</title><path class="cls-1" d="M63.12,69.06h16v-8h8V45h-8V37h-16v8h-8v16h8Zm-4-12V49h8V41h8v8h8v8h-8v8h-8v-8Zm0,0"/><path class="cls-1" d="M61.13,85.09a2,2,0,1,0,0,4h20a2,2,0,0,0,0-4Zm0,0"/><path class="cls-1" d="M89.17,93.1H53.11a2,2,0,0,0,0,4H89.17a2,2,0,0,0,0-4Zm0,0"/><path class="cls-1" d="M89.17,101.11H53.11a2,2,0,0,0,0,4H89.17a2,2,0,1,0,0-4Zm0,0"/><path class="cls-1" d="M115.2,13H27.08V129.15H115.2v-12h12V13Zm-4,112.16H31.09V17H111.2Zm12-12h-8v-16h8Zm0-20h-8v-16h8Zm0-20h-8v-16h8Zm0-20h-8V37h8Zm-8-20V17h8V33Zm0,0"/></svg>