<?xml version="1.0" encoding="utf-8"?>
<!-- Generator: Adobe Illustrator 21.0.2, SVG Export Plug-In . SVG Version: 6.00 Build 0)  -->
<svg version="1.1" id="Layer_1" xmlns="http://www.w3.org/2000/svg" xmlns:xlink="http://www.w3.org/1999/xlink" x="0px" y="0px"
	 viewBox="0 0 215 195" style="enable-background:new 0 0 215 195;" xml:space="preserve">
<style type="text/css">
	.st0{fill:#FFF8F8;}
</style>
<path class="st0" d="M172.4,132.6c-7.5,0-13.5-6-13.5-13.5s6-13.5,13.5-13.5c7.5,0,13.5,6,13.5,13.5c0,0,0,0,0,0
	C185.8,126.6,179.8,132.6,172.4,132.6z M142.6,175.9H29.1V27.2h29.7v5.4H34.5v137.8h102.7v-10.8h5.4L142.6,175.9L142.6,175.9z
	 M67,57c0-1.5,1.2-2.7,2.7-2.7h8.1v5.4h-8.1C68.2,59.7,67,58.5,67,57z M104.8,59.7h-8.1v-5.4h8.1c1.5,0,2.7,1.2,2.7,2.7
	S106.3,59.7,104.8,59.7L104.8,59.7z M88.6,119.1H121v24.3H88.6V119.1z M50.8,143.4v-24.3h32.4v24.3H50.8z M112.9,43.4V38h18.9v116.2
	H96.7c-3.4,0-6.5-2.2-7.6-5.4h37.3v-35.1H88.6v-5.5c18.3-1.4,32.4-16.7,32.4-35v-8.1c0-5.1-3.6-9.5-8.5-10.6
	c-1.1-3.4-4.2-5.6-7.7-5.7H91.3v16.2h13.5c3.3,0,6.2-2,7.5-5c2,0.8,3.3,2.8,3.3,5v8.1c0,16.4-13.3,29.7-29.7,29.7
	S56.2,89.6,56.2,73.2v-8.1c0-3,2.4-5.4,5.4-5.4h0.5c1.1,3.2,4.2,5.4,7.6,5.4h13.5V48.9H69.7c-3.4,0-6.5,2.2-7.6,5.4h-0.5
	c-6,0-10.8,4.8-10.8,10.8v8.1c0,18.3,14.1,33.6,32.4,35v5.5H45.3v35.1h38.1c1.3,6.3,6.8,10.8,13.2,10.8h35.1v5.4H39.9v-127h18.9v5.4
	L112.9,43.4z M64.3,27.2h11l0.7-1.6c2.4-5.5,8.7-8,14.2-5.6c2.5,1.1,4.5,3.1,5.6,5.6l0.7,1.6h11V38H64.3V27.2z M142.6,27.2v127h-5.4
	V32.7h-24.3v-5.4L142.6,27.2z M191.3,119.1c0-10.4-8.4-18.9-18.9-18.9c-10.4,0-18.9,8.4-18.9,18.9c0,9.4,6.9,17.4,16.2,18.8v8.3
	c0,4.5-3.6,8.1-8.1,8.1H148V21.8H99.9c-4.5-7.7-14.4-10.4-22.1-5.9c-2.5,1.4-4.5,3.5-5.9,5.9H23.7v159.4H148v-21.6h13.5
	c7.5,0,13.5-6.1,13.5-13.5v-8.3C184.3,136.5,191.2,128.5,191.3,119.1L191.3,119.1z"/>
<path class="st0" d="M172.4,121.8c-1.5,0-2.7-1.2-2.7-2.7c0-1.5,1.2-2.7,2.7-2.7c1.5,0,2.7,1.2,2.7,2.7v0
	C175.1,120.6,173.8,121.8,172.4,121.8z M172.4,111c-4.5,0-8.1,3.6-8.1,8.1s3.6,8.1,8.1,8.1s8.1-3.6,8.1-8.1
	C180.5,114.6,176.8,111,172.4,111z"/>
<path class="st0" d="M177.1,29.9h-9.5l4.7-6.3L177.1,29.9L177.1,29.9z M177.8,70.5v5.4h-10.8v-5.4H177.8z M177.8,35.3v29.7h-10.8
	V35.3L177.8,35.3z M172.4,89.3c-3,0-5.4-2.4-5.4-5.4v-2.7h10.8V84C177.8,87,175.4,89.4,172.4,89.3L172.4,89.3z M172.4,94.7
	c5.9,0,10.8-4.8,10.8-10.7V29l-10.8-14.4L161.5,29v55C161.6,90,166.4,94.8,172.4,94.7L172.4,94.7z"/>
<polygon class="st0" points="110.2,132.6 115.6,132.6 115.6,138 110.2,138 110.2,132.6 "/>
<polygon class="st0" points="94,132.6 104.8,132.6 104.8,138 94,138 94,132.6 "/>
</svg>
