<svg id="Layer_1" data-name="Layer 1" xmlns="http://www.w3.org/2000/svg" viewBox="0 0 154.3 142.13"><defs><style>.cls-1{fill:#fff;}</style></defs><title>home_stat7</title><path class="cls-1" d="M131.62,40h-.09a18.32,18.32,0,0,0-5.43.84c-5.86-18.32-19.62-33.37-35.7-38.77A41.76,41.76,0,0,0,76.86-.1C65.52,0,54.59,4.66,45.24,13.49A65.22,65.22,0,0,0,28,41.37a18.45,18.45,0,1,0-5.26,36.11,18.51,18.51,0,0,0,5.68-.93A51.78,51.78,0,0,0,46,100.23c-1.23,1-2.42,2-3.55,3.12a50.89,50.89,0,0,0-12.11,18.43,2.64,2.64,0,1,0,4.93,1.86,45.23,45.23,0,0,1,15.34-20.32c.65.38,1.33.77,2.08,1.17a2.64,2.64,0,0,0,2.49-4.65c-.85-.46-1.61-.89-2.31-1.32A46.56,46.56,0,0,1,32.58,72.26a2.64,2.64,0,0,0-3.75-1.57,13,13,0,0,1-6.08,1.52h-.07a13.18,13.18,0,1,1,5.91-25,2.64,2.64,0,0,0,3.74-1.69C37.37,26.06,54.7,5.28,76.88,5.17A36.37,36.37,0,0,1,88.71,7.11c15.29,5.14,28.3,20.06,33.14,38a2.64,2.64,0,0,0,3.75,1.66,13,13,0,0,1,6-1.46h.07a13.18,13.18,0,0,1,.06,26.36,13,13,0,0,1-6.09-1.46,2.64,2.64,0,0,0-3.74,1.6,46.88,46.88,0,0,1-22.76,28,2.64,2.64,0,1,0,2.49,4.65q1-.56,2.07-1.17A45.24,45.24,0,0,1,119,123.64a2.64,2.64,0,1,0,4.93-1.86,50.89,50.89,0,0,0-12.11-18.43c-1.13-1.1-2.32-2.14-3.56-3.13A52.28,52.28,0,0,0,126,76.07a18.2,18.2,0,0,0,5.69.87,18.45,18.45,0,0,0-.09-36.9Z"/><path class="cls-1" d="M77.15,69.48a2.64,2.64,0,1,1-2.64,2.64,2.64,2.64,0,0,1,2.64-2.64Z"/><path class="cls-1" d="M77.15,89.87a2.63,2.63,0,0,0,2.63-2.43A15.63,15.63,0,0,0,85,85.58a2.63,2.63,0,0,0,5-1.16V83.8h.53a2.64,2.64,0,0,0,0-5.27h-.6a2.63,2.63,0,0,0-5.19.62v0l-.1.1a10.48,10.48,0,0,1-4.82,2.76v-2.9a2.64,2.64,0,0,0-5.27,0v2.9a10.46,10.46,0,0,1-4.57-2.52v-.39a2.63,2.63,0,0,0-5.19-.62h-.6a2.64,2.64,0,0,0,0,5.27h.53v.62a2.63,2.63,0,0,0,4.92,1.32,15.65,15.65,0,0,0,4.93,1.7,2.63,2.63,0,0,0,2.63,2.43Z"/><path class="cls-1" d="M62.21,89.73v0a17.42,17.42,0,0,0-17.43-17.4h0a.71.71,0,0,1-.7-.56L41.75,61.27c-.05-.24-.1-.48-.15-.73A2.63,2.63,0,0,0,46.4,59,13.18,13.18,0,1,1,59.58,72.21a2.64,2.64,0,0,0,0,5.27A18.48,18.48,0,0,0,77.15,64.66,18.48,18.48,0,0,0,94.72,77.49a2.64,2.64,0,1,0,0-5.27A13.18,13.18,0,1,1,107.9,59a2.63,2.63,0,0,0,4.79,1.51c0,.24-.09.49-.15.73l-2.34,10.46a.72.72,0,0,1-.73.56h0a17.42,17.42,0,0,0-17.4,17.4v0a2.65,2.65,0,0,1-1.64,2.51,36,36,0,0,1-26.6,0,2.65,2.65,0,0,1-1.64-2.51ZM52.47,28.91c7.11-8.51,15.87-13.19,24.68-13.19s17.57,4.69,24.68,13.19a49.59,49.59,0,0,1,11.1,25.51,20.48,20.48,0,0,1,.13,2.53,18.45,18.45,0,0,0-35.9-3.53,18.45,18.45,0,0,0-35.9,3.53,20.65,20.65,0,0,1,.13-2.53,49.6,49.6,0,0,1,11.1-25.51Zm60.66,94.38A40.07,40.07,0,0,0,99.32,106.7a2.64,2.64,0,0,0-3.49.45A14.25,14.25,0,0,0,90.09,105a64,64,0,0,0-10.31-1v-2.27a2.64,2.64,0,0,0,1.28-1.82A40.85,40.85,0,0,0,92.4,97.14a7.91,7.91,0,0,0,5-7.45,12.14,12.14,0,0,1,12.15-12.12h0a6,6,0,0,0,5.84-4.68l2.34-10.46a26,26,0,0,0,.47-8.6,55,55,0,0,0-12.29-28.29C97.75,15.8,87.55,10.44,77.15,10.44S56.55,15.8,48.43,25.53a55,55,0,0,0-12.29,28.3,26,26,0,0,0,.47,8.6l2.33,10.46a6,6,0,0,0,5.87,4.68h0A12.14,12.14,0,0,1,56.94,89.72a7.9,7.9,0,0,0,5,7.42,40.86,40.86,0,0,0,11.34,2.74,2.64,2.64,0,0,0,1.27,1.82V104a63.94,63.94,0,0,0-10.31,1,14.26,14.26,0,0,0-5.74,2.14A2.64,2.64,0,0,0,55,106.7a40.07,40.07,0,0,0-13.82,16.59,3.52,3.52,0,1,0,4.87,2,34.59,34.59,0,0,1,11.23-13.76c1.17,2.45,5.29,3.4,8.95,3.95a2.64,2.64,0,0,0,.78-5.21l-1.23-.2a60.16,60.16,0,0,1,8.75-.84v1a2.63,2.63,0,0,0,0,4.56v.75a63.94,63.94,0,0,0-10.31,1c-3.38.68-7.27,1.86-7.27,5.07,0,3.57,5,4.77,9.27,5.42a2.64,2.64,0,1,0,.78-5.21l-1.23-.2a60.21,60.21,0,0,1,8.75-.84v1a2.63,2.63,0,0,0,0,4.56v.75a63.94,63.94,0,0,0-10.31,1c-3.38.68-7.27,1.86-7.27,5.07,0,3.57,5,4.77,9.27,5.42a2.64,2.64,0,0,0,.78-5.21l-1.23-.2a60.13,60.13,0,0,1,8.75-.84v1a2.63,2.63,0,0,0,0,4.56v1.59a2.64,2.64,0,0,0,5.27,0V138a2.63,2.63,0,0,0,0-4.56v-1a60.13,60.13,0,0,1,8.75.84l-1.23.2a2.64,2.64,0,1,0,.78,5.21c4.32-.65,9.27-1.85,9.27-5.42,0-3.21-3.88-4.39-7.27-5.07a64,64,0,0,0-10.31-1v-.75a2.63,2.63,0,0,0,0-4.56v-1a60.16,60.16,0,0,1,8.75.84l-1.23.2a2.64,2.64,0,1,0,.78,5.21c4.32-.65,9.27-1.85,9.27-5.42,0-3.21-3.88-4.39-7.27-5.07a64,64,0,0,0-10.31-1v-.75a2.63,2.63,0,0,0,0-4.56v-1a60.21,60.21,0,0,1,8.75.84l-1.23.2a2.64,2.64,0,1,0,.78,5.21c3.66-.55,7.78-1.5,8.95-3.95a34.6,34.6,0,0,1,11.23,13.76,3.51,3.51,0,1,0,4.87-2Z"/></svg>