<svg id="Layer_1" data-name="Layer 1" xmlns="http://www.w3.org/2000/svg" viewBox="0 0 154.3 142.13"><defs><style>.cls-1{fill:#fff;}</style></defs><title>home_stat3</title><path class="cls-1" d="M118.48,41.45c-1.35-5.13-5.33-10-11.18-13.78-7.21-4.63-17.39-5.16-26.6-1.34l-.3.12c-.16.07-.32.14-.49.2-.77.27-1.37.49-1.84.68-1.53.59-1.53.6-4-.15C66.84,25.06,57.7,23,50.67,25.44,41.18,28.8,32.76,39.95,35.36,57.24c.32,2,.61,4.11.92,6.19,2.18,14.94,4.42,30.39,10.2,44.35l.2.48c1.43,3.5,3.84,9.34,8,9.34H55l.31-.13c3.84-1.63,5.28-5.31,6.32-8,.7-1.81,1.33-3.67,1.94-5.45,1.54-4.51,3-8.78,5.61-12.61,2-2.9,7.33-9.22,14.18-5.14,4.57,2.72,6,8.21,7.39,13.52.39,1.51.8,3.09,1.28,4.55,2,6.17,4.61,12.55,8.73,13,2.14.21,4.18-1.25,5.95-4.36,3.25-5.69,4.65-12,6-18.16l.48-2.14c.53-2.37,1.12-4.82,1.72-7.32,3.39-14.08,7.23-30,3.56-43.89Zm-6.78,43.11c-.61,2.52-1.2,5-1.73,7.37l-.48,2.16c-1.29,5.89-2.63,12-5.63,17.23-1,1.77-2,2.74-2.73,2.71s-2.86-1.28-5.92-10.71C94.76,102,94.38,100.51,94,99c-1.48-5.68-3.16-12.12-8.9-15.53C78.76,79.67,71.63,82,66.47,89.56c-2.87,4.2-4.47,8.88-6,13.4-.6,1.76-1.21,3.57-1.9,5.32-1.06,2.72-2,4.91-4.16,6-1.88-.47-3.89-5.35-4.66-7.24l-.2-.49C43.92,92.95,41.7,77.7,39.55,63c-.3-2.08-.6-4.15-.91-6.2C37,45.63,40.39,32.61,51.78,28.56a18.59,18.59,0,0,1,6.16-.92c5.07,0,10.66,1.41,15,2.67,10.64,6,10.64,8.67,10.6,19.48V52a1.66,1.66,0,1,0,3.32,0V49.8c0-9.48,0-13.95-7.55-19.38.45-.18,1-.39,1.73-.64l.72-.29.25-.11c8.21-3.39,17.22-3,23.54,1.07,5.15,3.32,8.62,7.52,9.76,11.85,3.46,13.06-.28,28.57-3.58,42.26Zm0,0"/><path class="cls-1" d="M65.27,42H62.64l-4-4V35.41a1.66,1.66,0,0,0-3.32,0V38l-4,4H48.69a1.65,1.65,0,1,0,0,3.31h2.63l4,4V52a1.66,1.66,0,0,0,3.32,0V49.35l4-4h2.63a1.65,1.65,0,1,0,0-3.31ZM57,46.32,54.35,43.7,57,41.07l2.63,2.63Zm0,0"/><path class="cls-1" d="M108.37,71.87h-2.63l-4-4V65.24a1.66,1.66,0,0,0-3.32,0v2.63l-4,4H91.79a1.66,1.66,0,1,0,0,3.32h2.63l4,4v2.63a1.66,1.66,0,1,0,3.32,0V79.19l4-4h2.63a1.66,1.66,0,0,0,0-3.32Zm-8.29,4.29-2.63-2.63,2.63-2.63,2.63,2.63Zm0,0"/></svg>