<svg id="Layer_1" data-name="Layer 1" xmlns="http://www.w3.org/2000/svg" viewBox="0 0 154.3 142.13"><defs><style>.cls-1{fill:#fff;}</style></defs><title>home_stat2</title><path class="cls-1" d="M63.8,84.13a2,2,0,1,0,0,4h20a2,2,0,0,0,0-4Zm0,0"/><path class="cls-1" d="M91.84,92.14H55.78a2,2,0,0,0,0,4H91.84a2,2,0,0,0,0-4Zm0,0"/><path class="cls-1" d="M91.84,100.15H55.78a2,2,0,0,0,0,4H91.84a2,2,0,1,0,0-4Zm0,0"/><path class="cls-1" d="M117.87,12H29.74V128.19h88.13v-12h12V12Zm-4,112.16H33.75V16h80.12Zm12-12h-8v-16h8Zm0-20h-8v-16h8Zm0-20h-8v-16h8Zm0-20h-8v-16h8Zm-8-20V16h8v16Zm0,0"/></svg>