<svg id="Layer_1" data-name="Layer 1" xmlns="http://www.w3.org/2000/svg" viewBox="0 0 154.3 142.13"><defs><style>.cls-1{fill:#fff;}</style></defs><title>home_stat1</title><path class="cls-1" d="M120.87,72.87A17.3,17.3,0,0,0,103.73,88H79.81V74.75a8.7,8.7,0,0,0,5.41-4.05l27.93-47.23a8.8,8.8,0,0,0-7.58-13.29h-4.91a7.55,7.55,0,0,0-6.81-4.33C90.4,5.86,82,8.51,82,13.43S90.4,21,93.85,21a7.55,7.55,0,0,0,7.45-6.49h4.26a4.49,4.49,0,0,1,3.85,6.78L81.5,68.51a4.49,4.49,0,0,1-7.73,0L45.06,21.28a4.49,4.49,0,0,1,3.85-6.78H54A7.57,7.57,0,0,0,61.43,21c3.45,0,11.88-2.66,11.88-7.57S64.88,5.86,61.43,5.86a7.54,7.54,0,0,0-6.81,4.33H48.92a8.79,8.79,0,0,0-7.56,13.31L70.07,70.71a8.73,8.73,0,0,0,5.41,4V88H56a23.78,23.78,0,1,0,23.78,23.78V92.32h23.92a17.28,17.28,0,1,0,17.14-19.45Zm-27-56.2c-2.67,0-7.26-2.14-7.57-3.24.31-1.11,4.9-3.24,7.57-3.24a3.24,3.24,0,1,1,0,6.48ZM61.43,10.19c2.67,0,7.26,2.13,7.56,3.24-.3,1.1-4.89,3.24-7.56,3.24a3.24,3.24,0,1,1,0-6.48Zm14,101.58A19.45,19.45,0,1,1,56,92.32H75.48Zm45.39-8.64a13,13,0,1,1,13-13,13,13,0,0,1-13,13Zm0,0"/><path class="cls-1" d="M120.87,81.51a8.64,8.64,0,1,0,8.64,8.64,8.65,8.65,0,0,0-8.64-8.64Zm0,13a4.32,4.32,0,1,1,4.31-4.33,4.33,4.33,0,0,1-4.31,4.33Zm0,0"/></svg>