<?xml version="1.0" encoding="utf-8"?>
<!-- Generator: Adobe Illustrator 21.0.2, SVG Export Plug-In . SVG Version: 6.00 Build 0)  -->
<svg version="1.1" id="Layer_1" xmlns="http://www.w3.org/2000/svg" xmlns:xlink="http://www.w3.org/1999/xlink" x="0px" y="0px"
	 viewBox="0 0 149 148" style="enable-background:new 0 0 149 148;" xml:space="preserve">
<style type="text/css">
	.st0{fill:#FFFFFF;}
</style>
<g>
	<path class="st0" d="M71.6,116.1c2.5,0,4.5-2,4.5-4.5v-10.5h36.1v10.5c0,2.5,2,4.5,4.5,4.5c2.5,0,4.5,2,4.5,4.5
		c0,2.5-2,4.5-4.5,4.5c-2.5,0-4.5,2-4.5,4.5v4.5H76.1v-4.5c0-2.5-2-4.5-4.5-4.5c-2.5,0-4.5-2-4.5-4.5
		C67.1,118.1,69.1,116.1,71.6,116.1L71.6,116.1z M71.6,74c2.5,0,4.5-2,4.5-4.5V55.9h36.1v13.5c0,2.5,2,4.5,4.5,4.5
		c2.5,0,4.5,2,4.5,4.5c0,2.5-2,4.5-4.5,4.5c-2.5,0-4.5,2-4.5,4.5v4.5H76.1v-4.5c0-2.5-2-4.5-4.5-4.5c-2.5,0-4.5-2-4.5-4.5
		C67.1,76,69.1,74,71.6,74L71.6,74z M71.6,28.9c2.5,0,4.5-2,4.5-4.5V13.8h36.1v10.5c0,2.5,2,4.5,4.5,4.5c2.5,0,4.5,2,4.5,4.5v0
		c0,2.5-2,4.5-4.5,4.5c-2.5,0-4.5,2-4.5,4.5v4.5H76.1v-4.5c0-2.5-2-4.5-4.5-4.5c-2.5,0-4.5-2-4.5-4.5C67.1,30.9,69.1,28.9,71.6,28.9
		L71.6,28.9z M67.1,107.9c-5.3,1.9-9,6.9-9,12.8c0,5.9,3.8,10.9,9,12.8v5.3c0,2.5,2,4.5,4.5,4.5h45.1c2.5,0,4.5-2,4.5-4.5v-5.3
		c5.3-1.9,9-6.9,9-12.8c0-5.9-3.8-10.9-9-12.8c0-3.8,0-12.8,0-16.6c5.3-1.9,9-6.9,9-12.8c0-5.9-3.8-10.9-9-12.8c0-2.4,0-17.4,0-19.6
		c5.3-1.9,9-6.9,9-12.8v0c0-5.9-3.8-10.9-9-12.8V9.3c0-2.5-2-4.5-4.5-4.5H71.6c-2.5,0-4.5,2-4.5,4.5v11.3c-5.3,1.9-9,6.9-9,12.8
		c0,5.9,3.8,10.9,9,12.8c0,2.1,0,17.2,0,19.6c-5.3,1.9-9,6.9-9,12.8s3.8,10.9,9,12.8C67.1,95,67.1,104.1,67.1,107.9L67.1,107.9z"/>
	<path class="st0" d="M89.6,37.9c2.5,0,4.5-2,4.5-4.5v-6c0-2.5-2-4.5-4.5-4.5c-2.5,0-4.5,2-4.5,4.5v6C85.1,35.9,87.1,37.9,89.6,37.9
		L89.6,37.9z"/>
	<path class="st0" d="M89.6,83c2.5,0,4.5-2,4.5-4.5v-9c0-2.5-2-4.5-4.5-4.5c-2.5,0-4.5,2-4.5,4.5v9C85.1,81,87.1,83,89.6,83L89.6,83
		z"/>
	<path class="st0" d="M89.6,125.1c2.5,0,4.5-2,4.5-4.5v-6c0-2.5-2-4.5-4.5-4.5c-2.5,0-4.5,2-4.5,4.5v6
		C85.1,123.1,87.1,125.1,89.6,125.1L89.6,125.1z"/>
	<path class="st0" d="M41.9,34.9c-2.5,0-4.5,2-4.5,4.5v9c0,2.5,2,4.5,4.5,4.5h4.5v4.5c0,2.5,2,4.5,4.5,4.5c2.5,0,4.4-2,4.4-4.5v-9
		c0-2.5-1.9-4.5-4.4-4.5h-4.6v-4.5C46.3,36.9,44.4,34.9,41.9,34.9L41.9,34.9z"/>
	<path class="st0" d="M32.8,60.1l-3.2,3.2l-3.2-3.2c-1.8-1.8-4.6-1.8-6.4,0c-1.8,1.8-1.8,4.6,0,6.4l6.4,6.4c1.8,1.8,4.6,1.8,6.4,0
		l3.2-3.2l3.2,3.2c1.8,1.8,4.6,1.8,6.4,0c1.8-1.8,1.8-4.6,0-6.4l-6.4-6.4C37.5,58.3,34.6,58.3,32.8,60.1L32.8,60.1z"/>
	<path class="st0" d="M35.5,124.4c1.8,1.8,4.6,1.8,6.4,0l6.4-6.4c1.8-1.8,1.8-4.6,0-6.4l-3.2-3.2l3.2-3.2c1.8-1.8,1.8-4.6,0-6.4
		c-1.8-1.8-4.6-1.8-6.4,0l-6.4,6.4c-1.8,1.8-1.8,4.6,0,6.4l3.2,3.2l-3.2,3.2C33.7,119.8,33.7,122.6,35.5,124.4L35.5,124.4z"/>
	<path class="st0" d="M37.3,93.6V89h4.5c2.5,0,4.5-2,4.5-4.5c0-2.5-2-4.5-4.5-4.5h-9c-2.5,0-4.5,2-4.5,4.5V89h-4.5
		c-2.5,0-4.5,2-4.5,4.5c0,2.5,2,4.5,4.5,4.5h9C35.3,98.1,37.3,96,37.3,93.6L37.3,93.6z"/>
</g>
</svg>
