<svg id="Layer_1" data-name="Layer 1" xmlns="http://www.w3.org/2000/svg" viewBox="0 0 154.3 142.13"><defs><style>.cls-1{fill:#fff;}</style></defs><title>home_stat9</title><path class="cls-1" d="M93.63,28.68h-19c.07-.78.12-1.56.12-2.35s-.05-1.58-.12-2.35h19v4.71ZM65.33,40.45h-7A2.36,2.36,0,0,1,56,38.1V14.55a2.36,2.36,0,0,1,2.35-2.35h7a23.37,23.37,0,0,1,0,28.26ZM46.54,49.87H15.92a7.07,7.07,0,0,1-7.06-7.06v-33a7.07,7.07,0,0,1,7.06-7.06H46.54A23.39,23.39,0,0,1,60.6,7.48H58.31a7.07,7.07,0,0,0-7.06,7.06V38.1a7.07,7.07,0,0,0,7.06,7.06H60.6a23.39,23.39,0,0,1-14.07,4.71ZM140.73,24A9.32,9.32,0,0,0,136,25.28V21.61a9.41,9.41,0,0,0-14.69-7.8,9.36,9.36,0,0,0-17.71,0,9.38,9.38,0,0,0-14.36,5.45H73.86A28.18,28.18,0,0,0,67.73,7.69V7.48h-.19a28.17,28.17,0,0,0-21-9.42H15.92A11.79,11.79,0,0,0,4.15,9.84v33A11.79,11.79,0,0,0,15.92,54.58H46.54a28.17,28.17,0,0,0,21-9.42h.19V45a28.18,28.18,0,0,0,6.13-11.56H88.92V77.15L86.57,74.8v-12a10.6,10.6,0,0,0-21.19,0v23l12.29,22.54a16.39,16.39,0,0,0,7.1,6.85l4.15,2.08v26.8h4.71V114.35L86.88,111a11.72,11.72,0,0,1-5.07-4.89L70.09,84.59V62.82a5.89,5.89,0,1,1,11.77,0V76.75l6.09,6.09h5.68V33.39h4.71V19.26H94.29a4.69,4.69,0,0,1,8.76,2.35v40h4.71V16.9a4.71,4.71,0,0,1,9.42,0V61.65h4.71v-40a4.71,4.71,0,1,1,9.42,0v40H136V33.39a4.71,4.71,0,0,1,9.42,0V104a11.71,11.71,0,0,1-6.51,10.53L136,116v28h4.71V118.93l.31-.15A16.39,16.39,0,0,0,150.15,104V33.39A9.43,9.43,0,0,0,140.73,24Z"/><path class="cls-1" d="M102.36,76.46,99,79.79l5.85,5.85A25.75,25.75,0,0,1,112.47,104v9.49h4.71V104a30.41,30.41,0,0,0-9-21.65l-5.85-5.85Z"/><path class="cls-1" d="M18.28,12.19H41.83V40.45H18.28V12.19Zm-4.71,33h33V7.48h-33V45.16Z"/><polygon class="cls-1" points="22.99 31.03 27.7 31.03 27.7 35.74 22.99 35.74 22.99 31.03 22.99 31.03"/><polygon class="cls-1" points="32.41 31.03 37.12 31.03 37.12 35.74 32.41 35.74 32.41 31.03 32.41 31.03"/></svg>