<?xml version="1.0" encoding="utf-8"?>
<!-- Generator: Adobe Illustrator 21.0.2, SVG Export Plug-In . SVG Version: 6.00 Build 0)  -->
<svg version="1.1" id="Layer_1" xmlns="http://www.w3.org/2000/svg" xmlns:xlink="http://www.w3.org/1999/xlink" x="0px" y="0px"
	 viewBox="0 0 215 195" style="enable-background:new 0 0 215 195;" xml:space="preserve">
<style type="text/css">
	.st0{fill:#FAF6FF;}
</style>
<path class="st0" d="M110.7,110.4c-11.4,0-19.4,8-19.4,19.4v3.2c0,15.7,8.9,25.9,22.6,25.9s22.6-10.1,22.6-25.9v-3.2
	c0-11.4-8-19.4-19.4-19.4L110.7,110.4z M130.1,129.8v3.2c0,5.8-1.6,19.4-16.2,19.4S97.8,138.9,97.8,133v-3.2
	c0-7.8,5.1-12.9,12.9-12.9h6.5C125,116.9,130.1,121.9,130.1,129.8L130.1,129.8z"/>
<path class="st0" d="M107.6,129.8L107.6,129.8c-1.8,0-3.2,1.5-3.2,3.3c0,1.8,1.5,3.2,3.3,3.2c1.8,0,3.2-1.5,3.2-3.2
	C110.9,131.3,109.4,129.8,107.6,129.8C107.6,129.8,107.6,129.8,107.6,129.8z"/>
<path class="st0" d="M123.4,87.8c1.8,0.1,3.3-1.2,3.5-3c0,0,0,0,0,0l3.2-42c0.7-7.7,11.1-16.5,19.4-16.5h6.5
	c8.5,0,18.8,8.7,19.4,16.4l3.2,42c0.1,1.7,1.5,3,3.2,3h0.3c1.8-0.1,3.1-1.7,3-3.4c0,0,0,0,0,0l-3.2-42C180.9,30.5,166.6,20,156,20
	h-6.5c-11.8,0-24.8,11.3-25.8,22.4l-3.2,42C120.3,86.1,121.6,87.7,123.4,87.8C123.4,87.8,123.4,87.8,123.4,87.8L123.4,87.8z"/>
<path class="st0" d="M152.6,41.5c-0.6-1.7-2.4-2.6-4.1-2c-1,0.3-1.7,1.1-2,2c-1.4,4.3-5.3,7.3-9.9,7.5c-1.8,0-3.2,1.4-3.2,3.2v13
	c0,10.8,7.4,25.8,19.4,25.8s19.4-15,19.4-25.8V52.3c0-1.8-1.4-3.2-3.2-3.3c0,0,0,0,0,0C168.7,49,155,48.8,152.6,41.5L152.6,41.5z
	 M165.6,65.2c0,8.8-5.8,19.4-12.9,19.4S139.8,74,139.8,65.2V55.1c3.9-0.9,7.4-3,9.9-6.2c4.5,4.5,11.7,5.9,15.9,6.4L165.6,65.2z"/>
<path class="st0" d="M75.2,45.8h3.2c1.8,0,3.2-1.4,3.2-3.2c0-1.8-1.4-3.2-3.2-3.2c0,0,0,0,0,0h-3.2c-1.8,0-3.2,1.4-3.2,3.2
	C72,44.4,73.4,45.8,75.2,45.8C75.2,45.8,75.2,45.8,75.2,45.8z"/>
<path class="st0" d="M120.5,136.3c1.8,0,3.2-1.4,3.2-3.2c0-1.8-1.4-3.2-3.2-3.2l0,0c-1.8,0-3.2,1.4-3.2,3.2
	C117.3,134.8,118.7,136.3,120.5,136.3L120.5,136.3z"/>
<path class="st0" d="M43,51.5c0.5,4.1,1.7,8.2,3.5,11.9c2.9,5.9,7.4,14.7,22.3,14.7S88.1,69.3,91,63.4c1.8-3.8,3-7.8,3.4-11.9
	c2.1-1.1,3.3-3.3,3.3-5.7v-6.5c0-2.3-1.2-4.4-3.2-5.6v-0.9c0-10.7-8.7-19.4-19.4-19.4H62.3c-10.7,0-19.4,8.7-19.4,19.4v0.9
	c-2,1.2-3.2,3.3-3.2,5.6v6.5C39.6,48.2,40.9,50.3,43,51.5z M46.1,39.3c1.8,0,3.2-1.4,3.2-3.2v-3.2c0-7.1,5.8-12.9,12.9-12.9h12.9
	c7.1,0,12.9,5.8,12.9,12.9v3.2c0,1.8,1.4,3.2,3.2,3.2l0,0v6.5c-1.8,0-3.2,1.4-3.2,3.2c0,5.6-2.9,11.4-2.9,11.5
	c-3.4,6.7-6.3,11.1-16.5,11.1s-13.1-4.4-16.5-11.1c0-0.1-2.9-5.9-2.9-11.5c0-1.8-1.4-3.2-3.2-3.2V39.3z"/>
<path class="st0" d="M123.7,162.1c-0.6,0-1.3,0.2-1.8,0.5l-7.9,5.3l-7.9-5.3c-0.5-0.4-1.2-0.5-1.8-0.5c-18.7,0-22.6,8.8-22.6,16.1
	c0,1.8,1.4,3.2,3.2,3.2c1.8,0,3.2-1.4,3.2-3.2c0-2.6,0-9.4,15.2-9.7l8.9,5.9c1.1,0.7,2.5,0.7,3.6,0l8.9-5.9
	c15.2,0.3,15.2,7.1,15.2,9.7c0,1.8,1.4,3.2,3.2,3.2c1.8,0,3.2-1.4,3.2-3.2C146.3,170.9,142.4,162.1,123.7,162.1L123.7,162.1z"/>
<path class="st0" d="M182,123.3L182,123.3c-1.8,0-3.2,1.4-3.2,3.2l-0.2,51.7c0,1.8,1.4,3.2,3.2,3.2c0,0,0,0,0,0l0,0
	c1.8,0,3.2-1.4,3.2-3.2l0.2-51.7C185.2,124.8,183.8,123.4,182,123.3C182,123.3,182,123.3,182,123.3z"/>
<path class="st0" d="M59,45.8h3.2c1.8,0,3.2-1.4,3.2-3.2c0-1.8-1.4-3.2-3.2-3.2c0,0,0,0,0,0H59c-1.8,0-3.2,1.4-3.2,3.2
	C55.8,44.4,57.2,45.8,59,45.8z"/>
<path class="st0" d="M84.8,104.6l2.7-13.5c16.3,0.4,28,4.4,31.7,11c0.8,1.6,2.8,2.2,4.3,1.4c1.6-0.8,2.2-2.8,1.4-4.3
	c0-0.1-0.1-0.1-0.1-0.2c-5.1-9.3-19.2-14.4-39.8-14.4c-1.6-0.1-3,1-3.4,2.6l-3.2,16.1c-0.3,1.7,0.8,3.4,2.5,3.8
	c0.2,0,0.4,0.1,0.6,0.1C83.2,107.1,84.5,106.1,84.8,104.6L84.8,104.6z"/>
<path class="st0" d="M196.5,100.7c-6.3-6.3-15.9-9.7-27.5-9.7c-1.8,0-3.3,1.4-3.3,3.2c0,0,0,0,0,0c0,0.7-0.2,16.1-12.9,16.1
	S139.8,95,139.8,94.3c0-1.8-1.4-3.2-3.2-3.2c-1.8,0-3.2,1.4-3.2,3.2c0,7.2,3.5,20.4,16.1,22.3V133c0,1.8,1.4,3.2,3.2,3.2
	c1.8,0,3.2-1.4,3.2-3.2v-16.4c10.9-1.7,15-11.6,15.9-19c8.6,0.5,15.4,3.1,20,7.7c3.9,3.9,6.1,9.3,6,14.8v51.7c0,1.8,1.4,3.2,3.2,3.2
	c1.8,0,3.2-1.4,3.2-3.2v-51.7C204.4,112.9,201.6,105.9,196.5,100.7L196.5,100.7z"/>
<path class="st0" d="M68.7,84.6c-3.6,0-6.4,2.9-6.4,6.5c0,2.3,1.2,4.4,3.2,5.5v23.5c0,1.8,1.4,3.2,3.2,3.2c1.8,0,3.2-1.4,3.2-3.2
	V96.6c3.1-1.8,4.1-5.7,2.3-8.8C73.1,85.8,71,84.6,68.7,84.6L68.7,84.6z"/>
<path class="st0" d="M33.2,123.3c-1.8,0-3.2,1.5-3.2,3.2v51.7c0,1.8,1.4,3.2,3.2,3.2c1.8,0,3.2-1.4,3.2-3.2v-51.7
	C36.5,124.8,35,123.3,33.2,123.3C33.2,123.3,33.2,123.3,33.2,123.3L33.2,123.3z"/>
<path class="st0" d="M55.7,87.2c-0.4-1.5-1.8-2.6-3.4-2.6c-17,0-30,3.6-36.6,10.2c-3.4,3.2-5.2,7.7-5.2,12.3v64.6
	c0,1.8,1.4,3.2,3.2,3.2c1.8,0,3.2-1.4,3.2-3.2v-64.6c0-2.9,1.2-5.7,3.3-7.8c5-5,15.7-8,29.6-8.3L65.6,166c0.3,1.8,2,2.9,3.7,2.6
	s2.9-2,2.6-3.7c0-0.1,0-0.1,0-0.2L55.7,87.2z"/>
</svg>
