<?xml version="1.0" encoding="utf-8"?>
<!-- Generator: Adobe Illustrator 21.0.2, SVG Export Plug-In . SVG Version: 6.00 Build 0)  -->
<svg version="1.1" id="Layer_1" xmlns="http://www.w3.org/2000/svg" xmlns:xlink="http://www.w3.org/1999/xlink" x="0px" y="0px"
	 viewBox="0 0 215 195" style="enable-background:new 0 0 215 195;" xml:space="preserve">
<style type="text/css">
	.st0{fill:#FAF8FF;}
</style>
<path class="st0" d="M183,173V68.9h-41.7v-52H73.7v52H32V173h-5.2v5.2h161.4V173H183z M73.7,173H37.2V74.1h36.4V173z M104.9,173h-13
	v-39h13V173z M123.1,173h-13v-39h13V173z M136.1,68.9V173h-7.8v-39h2.6v-5.2H84.1v5.2h2.6v39h-7.8V22h57.2V68.9z M177.8,173h-36.4
	V74.1h36.4L177.8,173z"/>
<path class="st0" d="M99.7,74.1h15.6V58.5h15.6V42.8h-15.6V27.2H99.7v15.6H84.1v15.6h15.6V74.1z M89.3,53.3v-5.2h15.6V32.5h5.2v15.6
	h15.6v5.2h-15.6v15.6h-5.2V53.3H89.3z"/>
<path class="st0" d="M104.9,79.3H84.1v15.6h20.8L104.9,79.3z M99.7,89.7H89.3v-5.2h10.4V89.7z"/>
<path class="st0" d="M110.1,94.9h20.8V79.3h-20.8V94.9z M115.3,84.5h10.4v5.2h-10.4L115.3,84.5z"/>
<path class="st0" d="M104.9,100.1H84.1v15.6h20.8L104.9,100.1z M99.7,110.5H89.3v-5.2h10.4V110.5z"/>
<path class="st0" d="M110.1,115.7h20.8v-15.6h-20.8V115.7z M115.3,105.3h10.4v5.2h-10.4L115.3,105.3z"/>
<path class="st0" d="M169.9,79.3h-20.8v15.6H170L169.9,79.3z M164.8,89.7h-10.4v-5.2h10.4V89.7z"/>
<path class="st0" d="M169.9,100.1h-20.8v15.6H170L169.9,100.1z M164.8,110.5h-10.4v-5.2h10.4V110.5z"/>
<path class="st0" d="M169.9,120.9h-20.8v15.6H170L169.9,120.9z M164.8,131.3h-10.4v-5.2h10.4V131.3z"/>
<path class="st0" d="M169.9,141.7h-20.8v15.6H170L169.9,141.7z M164.8,152.2h-10.4V147h10.4V152.2z"/>
<path class="st0" d="M65.9,79.3H45v15.6h20.9V79.3z M60.7,89.7H50.3v-5.2h10.4V89.7z"/>
<path class="st0" d="M65.9,100.1H45v15.6h20.9V100.1z M60.7,110.5H50.3v-5.2h10.4V110.5z"/>
<path class="st0" d="M65.9,120.9H45v15.6h20.9V120.9z M60.7,131.3H50.3v-5.2h10.4V131.3z"/>
<path class="st0" d="M65.9,141.7H45v15.6h20.9V141.7z M60.7,152.2H50.3V147h10.4V152.2z"/>
</svg>
