<svg id="Layer_1" data-name="Layer 1" xmlns="http://www.w3.org/2000/svg" viewBox="0 0 214.99 195"><defs><style>.cls-1{fill:#00a4ef;}</style></defs><title>nd_ic6</title><path class="cls-1" d="M172.35,132.63a13.51,13.51,0,1,1,13.51-13.51,13.53,13.53,0,0,1-13.51,13.51Zm-29.72,43.24H29.13V27.24H58.86v5.4H34.54V170.46H137.22V159.65h5.4v16.21ZM67,57a2.7,2.7,0,0,1,2.7-2.7h8.11v5.4H69.67A2.7,2.7,0,0,1,67,57Zm37.83,2.7H96.69v-5.4h8.11a2.7,2.7,0,0,1,0,5.4ZM88.58,119.12H121v24.32H88.58V119.12ZM50.75,143.44V119.12H83.18v24.32Zm62.15-100v-5.4h18.92v116.2H96.69a8.1,8.1,0,0,1-7.61-5.4h37.33V113.71H88.58v-5.54a35.15,35.15,0,0,0,32.43-35V65.07a10.82,10.82,0,0,0-8.53-10.56,8.09,8.09,0,0,0-7.69-5.66H91.28V65.07h13.51a8.12,8.12,0,0,0,7.48-5,5.41,5.41,0,0,1,3.33,5v8.11a29.72,29.72,0,1,1-59.45,0V65.07a5.41,5.41,0,0,1,5.4-5.4h.5a8.09,8.09,0,0,0,7.61,5.4H83.18V48.86H69.67a8.1,8.1,0,0,0-7.61,5.4h-.5A10.82,10.82,0,0,0,50.75,65.07v8.11a35.15,35.15,0,0,0,32.43,35v5.54H45.34v35.13h38.1a13.54,13.54,0,0,0,13.24,10.81h35.13v5.4H39.94v-127H58.86v5.4ZM64.26,27.24h11L76,25.62a10.79,10.79,0,0,1,19.79,0l.71,1.62h11V38.05H64.26V27.24Zm78.37,0v127h-5.4V32.65H112.9v-5.4Zm48.64,91.88a18.92,18.92,0,1,0-21.62,18.7v8.32a8.12,8.12,0,0,1-8.11,8.11H148V21.84H99.91a16.19,16.19,0,0,0-28.05,0H23.73V181.27H148V159.65h13.51a13.53,13.53,0,0,0,13.51-13.51v-8.32a18.93,18.93,0,0,0,16.21-18.7Z"/><path class="cls-1" d="M172.35,121.82a2.7,2.7,0,1,1,2.7-2.7,2.7,2.7,0,0,1-2.7,2.7Zm0-10.81a8.11,8.11,0,1,0,8.11,8.11,8.12,8.12,0,0,0-8.11-8.11Z"/><path class="cls-1" d="M177.08,29.94h-9.46l4.73-6.3,4.73,6.3Zm.68,40.53v5.4H166.95v-5.4Zm0-35.13V65.07H166.95V35.35Zm-5.4,54a5.41,5.41,0,0,1-5.4-5.4v-2.7h10.81V84a5.41,5.41,0,0,1-5.4,5.4Zm0,5.4A10.82,10.82,0,0,0,183.16,84V29L172.35,14.63,161.54,29V84A10.82,10.82,0,0,0,172.35,94.8Z"/><polygon class="cls-1" points="110.2 132.63 115.6 132.63 115.6 138.03 110.2 138.03 110.2 132.63 110.2 132.63"/><polygon class="cls-1" points="93.99 132.63 104.8 132.63 104.8 138.03 93.99 138.03 93.99 132.63 93.99 132.63"/></svg>