<svg id="Layer_1" data-name="Layer 1" xmlns="http://www.w3.org/2000/svg" viewBox="0 0 154.3 142.13"><defs><style>.cls-1{fill:#00a4ef;}</style></defs><title>nd_ic8</title><path class="cls-1" d="M132.11,24.47a36.24,36.24,0,0,0-51.26,0L78,27.35,75.1,24.47A36.24,36.24,0,0,0,23.85,75.72l51.43,51.43a3.82,3.82,0,0,0,5.4,0l51.43-51.43a36.24,36.24,0,0,0,0-51.26Zm-5.4,45.86L78,119.06,29.25,70.32A28.61,28.61,0,0,1,69.7,29.87l5.58,5.58a3.82,3.82,0,0,0,5.4,0l5.58-5.58a28.61,28.61,0,0,1,40.46,40.46Zm0,0"/><path class="cls-1" d="M18,62.09H4a3.82,3.82,0,1,0,0,7.64H18a3.82,3.82,0,0,0,0-7.64Zm0,0"/><path class="cls-1" d="M137.6,62.22H101.06L95.37,49.71a2.54,2.54,0,0,0-4.72.2L79,82.66,64.9,43.53a2.54,2.54,0,0,0-2.27-1.68,2.47,2.47,0,0,0-2.42,1.46L50.71,63.49H19.24A2.55,2.55,0,0,0,16.69,66c0,1.41,1.67,2.42,3.08,2.42H52.87c1,0,1.35-.45,1.77-1.34L62.2,51l14.46,40a2.55,2.55,0,0,0,2.39,1.68h0a2.54,2.54,0,0,0,2.39-1.69L93.35,57.55l3.76,8.26c.41.91,1.86,1.37,2.85,1.37h38.18c1.4,0,2-1,2-2.42a2.55,2.55,0,0,0-2.54-2.54Zm0,0"/><path class="cls-1" d="M150.33,60.82H138.88a3.82,3.82,0,1,0,0,7.64h11.45a3.82,3.82,0,0,0,0-7.64Zm0,0"/></svg>