<svg id="Layer_1" data-name="Layer 1" xmlns="http://www.w3.org/2000/svg" viewBox="0 0 214.99 195"><defs><style>.cls-1{fill:#00a4ef;}</style></defs><title>nd_ic4</title><path class="cls-1" d="M110.73,110.42c-11.41,0-19.38,8-19.38,19.38V133c0,15.7,8.88,25.85,22.61,25.85s22.61-10.15,22.61-25.85v-3.23c0-11.41-8-19.38-19.39-19.38Zm19.39,19.38V133c0,5.83-1.58,19.38-16.15,19.38S97.8,138.87,97.8,133v-3.23c0-7.85,5.07-12.92,12.92-12.92h6.46c7.85,0,12.92,5.07,12.92,12.92Zm0,0"/><path class="cls-1" d="M107.59,129.81h0a3.23,3.23,0,1,0,3.27,3.23,3.22,3.22,0,0,0-3.27-3.23Zm0,0"/><path class="cls-1" d="M123.4,87.8a3.23,3.23,0,0,0,3.47-3l3.23-41.95c.72-7.69,11.05-16.46,19.4-16.46H156c8.5,0,18.84,8.73,19.39,16.4l3.23,42a3.23,3.23,0,0,0,3.22,3h.25a3.23,3.23,0,0,0,3-3.47l-3.23-42C180.93,30.5,166.63,20,156,20H149.5c-11.76,0-24.8,11.26-25.84,22.37l-3.23,42a3.23,3.23,0,0,0,3,3.47Zm0,0"/><path class="cls-1" d="M152.56,41.55a3.23,3.23,0,0,0-6.13,0A10.87,10.87,0,0,1,136.57,49a3.23,3.23,0,0,0-3.23,3.23V65.19C133.34,76,140.72,91,152.73,91S172.11,76,172.11,65.19V52.27A3.23,3.23,0,0,0,168.88,49c-.14,0-13.89-.2-16.32-7.48Zm13.09,23.64c0,8.78-5.76,19.39-12.92,19.39S139.8,74,139.8,65.19V55.11a17.55,17.55,0,0,0,9.94-6.19c4.52,4.53,11.74,5.94,15.91,6.39Zm0,0"/><path class="cls-1" d="M75.19,45.81h3.23a3.23,3.23,0,1,0,0-6.46H75.19a3.23,3.23,0,1,0,0,6.46Zm0,0"/><path class="cls-1" d="M120.52,136.27a3.23,3.23,0,0,0,0-6.46h0a3.23,3.23,0,0,0,0,6.46Zm0,0"/><path class="cls-1" d="M43,51.47a38.43,38.43,0,0,0,3.45,11.94c2.93,5.86,7.36,14.71,22.28,14.71S88.07,69.26,91,63.41a38.41,38.41,0,0,0,3.45-11.94,6.47,6.47,0,0,0,3.35-5.66V39.35a6.46,6.46,0,0,0-3.23-5.59v-.87A19.41,19.41,0,0,0,75.19,13.5H62.27A19.4,19.4,0,0,0,42.88,32.88v.87a6.45,6.45,0,0,0-3.23,5.59v6.46A6.47,6.47,0,0,0,43,51.47Zm3.11-12.13a3.23,3.23,0,0,0,3.23-3.23V32.88A12.94,12.94,0,0,1,62.27,20H75.19A12.94,12.94,0,0,1,88.11,32.88v3.23a3.23,3.23,0,0,0,3.23,3.23v6.46A3.23,3.23,0,0,0,88.11,49c0,5.59-2.86,11.42-2.89,11.48-3.36,6.73-6.33,11.14-16.49,11.14S55.59,67.24,52.23,60.52c0-.06-2.89-5.89-2.89-11.48a3.23,3.23,0,0,0-3.23-3.23Zm0,0"/><path class="cls-1" d="M123.65,162.12a3.25,3.25,0,0,0-1.79.54l-7.9,5.27-7.9-5.27a3.24,3.24,0,0,0-1.79-.54c-18.69,0-22.61,8.78-22.61,16.15a3.23,3.23,0,0,0,6.46,0c0-2.6,0-9.41,15.19-9.69l8.86,5.91a3.23,3.23,0,0,0,3.58,0l8.87-5.91c15.19.28,15.19,7.09,15.19,9.69a3.23,3.23,0,0,0,6.46,0c0-7.37-3.92-16.15-22.61-16.15Zm0,0"/><path class="cls-1" d="M182,123.35h0a3.23,3.23,0,0,0-3.23,3.22l-.2,51.69a3.23,3.23,0,0,0,3.22,3.24h0a3.23,3.23,0,0,0,3.23-3.22l.2-51.69a3.23,3.23,0,0,0-3.22-3.24Zm0,0"/><path class="cls-1" d="M59,45.81h3.23a3.23,3.23,0,1,0,0-6.46H59a3.23,3.23,0,0,0,0,6.46Zm0,0"/><path class="cls-1" d="M84.82,104.6l2.7-13.49c16.31.37,28.05,4.43,31.65,11a3.23,3.23,0,1,0,5.67-3.09c-5.07-9.32-19.19-14.44-39.76-14.44a3.33,3.33,0,0,0-3.38,2.6l-3.23,16.11a3.23,3.23,0,0,0,2.53,3.8,3.06,3.06,0,0,0,.64.06,3.23,3.23,0,0,0,3.16-2.59Zm0,0"/><path class="cls-1" d="M196.5,100.73c-6.33-6.32-15.85-9.66-27.52-9.66a3.27,3.27,0,0,0-3.33,3.22c0,.66-.23,16.13-12.92,16.13S139.81,95,139.8,94.3a3.23,3.23,0,0,0-6.46,0c0,7.22,3.49,20.38,16.15,22.31V133a3.23,3.23,0,1,0,6.46,0V116.62c10.91-1.67,15-11.64,15.94-19,8.57.48,15.45,3.11,20,7.69a20.71,20.71,0,0,1,6,14.81v51.69a3.23,3.23,0,0,0,6.46,0V120.11a27.14,27.14,0,0,0-7.92-19.38Zm0,0"/><path class="cls-1" d="M68.73,84.58a6.44,6.44,0,0,0-3.23,12v23.52a3.23,3.23,0,0,0,6.46,0V96.6a6.44,6.44,0,0,0-3.23-12Zm0,0"/><path class="cls-1" d="M33.19,123.35A3.23,3.23,0,0,0,30,126.58v51.69a3.23,3.23,0,0,0,6.46,0V126.58a3.23,3.23,0,0,0-3.23-3.23Zm0,0"/><path class="cls-1" d="M55.73,87.19a3.41,3.41,0,0,0-3.38-2.57c-17,0-30,3.63-36.57,10.24a16.93,16.93,0,0,0-5.21,12.34v64.62a3.23,3.23,0,0,0,6.46,0V107.19a10.54,10.54,0,0,1,3.31-7.76c5-5,15.74-8,29.6-8.32L65.56,166a3.23,3.23,0,1,0,6.32-1.32Zm0,0"/></svg>