<svg id="Layer_1" data-name="Layer 1" xmlns="http://www.w3.org/2000/svg" viewBox="0 0 214.99 195"><defs><style>.cls-1{fill:#00a4ef;}</style></defs><title>nd_ic3</title><path class="cls-1" d="M160.58,59.68c-1.75-6.63-6.89-13-14.46-17.82-9.32-6-22.49-6.67-34.39-1.74l-.39.16c-.21.09-.41.19-.63.26-1,.35-1.77.64-2.38.88-2,.76-2,.77-5.23-.19C93.81,38.49,82,35.75,72.91,39,60.63,43.32,49.74,57.73,53.1,80.1c.41,2.65.79,5.32,1.18,8,2.82,19.32,5.72,39.3,13.19,57.35l.26.62c1.85,4.52,5,12.08,10.36,12.08h.44l.4-.17c5-2.1,6.82-6.87,8.17-10.34.91-2.34,1.73-4.74,2.51-7,2-5.84,3.87-11.36,7.25-16.31,2.56-3.75,9.48-11.92,18.34-6.64,5.91,3.52,7.76,10.61,9.56,17.48.5,2,1,4,1.65,5.88,2.59,8,6,16.23,11.28,16.78,2.77.27,5.4-1.61,7.69-5.64,4.21-7.36,6-15.56,7.74-23.49l.62-2.77c.68-3.07,1.44-6.23,2.22-9.46,4.39-18.2,9.35-38.82,4.61-56.75Zm-8.77,55.74c-.79,3.26-1.55,6.45-2.24,9.53l-.62,2.79c-1.67,7.62-3.4,15.49-7.29,22.28-1.3,2.29-2.59,3.55-3.53,3.51s-3.69-1.66-7.65-13.85c-.58-1.77-1.07-3.64-1.58-5.63-1.91-7.35-4.09-15.67-11.5-20.08-8.18-4.87-17.41-1.83-24.07,7.91-3.72,5.43-5.78,11.48-7.76,17.33-.77,2.27-1.57,4.62-2.46,6.88-1.37,3.52-2.65,6.35-5.38,7.74-2.43-.61-5-6.92-6-9.37l-.26-.64c-7.27-17.55-10.14-37.27-12.91-56.33-.39-2.69-.77-5.37-1.17-8C55.19,65.08,59.6,48.24,74.34,43a24,24,0,0,1,8-1.2c6.56,0,13.78,1.82,19.35,3.45,13.76,7.82,13.76,11.21,13.71,25.19v2.82a2.14,2.14,0,1,0,4.29,0V70.47c.05-12.26,0-18-9.76-25.06.59-.23,1.31-.5,2.24-.83.3-.12.62-.24.93-.38l.33-.14c10.61-4.39,22.27-3.86,30.43,1.38,6.66,4.29,11.15,9.72,12.62,15.32,4.47,16.88-.37,36.95-4.63,54.65Zm0,0"/><path class="cls-1" d="M91.78,60.43h-3.4l-5.17-5.18V51.86a2.15,2.15,0,0,0-4.29,0v3.39l-5.17,5.18h-3.4a2.14,2.14,0,1,0,0,4.28h3.4l5.17,5.18v3.4a2.15,2.15,0,0,0,4.29,0V69.9l5.17-5.18h3.4a2.14,2.14,0,1,0,0-4.28ZM81.06,66l-3.4-3.39,3.4-3.4,3.4,3.4Zm0,0"/><path class="cls-1" d="M147.51,99h-3.4l-5.17-5.17v-3.4a2.15,2.15,0,0,0-4.29,0v3.4L129.48,99h-3.4a2.15,2.15,0,1,0,0,4.29h3.4l5.17,5.17v3.4a2.15,2.15,0,1,0,4.29,0v-3.4l5.17-5.17h3.4a2.15,2.15,0,0,0,0-4.29Zm-10.72,5.55-3.4-3.4,3.4-3.4,3.4,3.4Zm0,0"/></svg>