<svg id="Layer_1" data-name="Layer 1" xmlns="http://www.w3.org/2000/svg" viewBox="0 0 214.99 195"><defs><style>.cls-1{fill:#00a4ef;}</style></defs><title>nd_ic5</title><path class="cls-1" d="M183,173V68.88H141.32v-52H73.67v52H32V173h-5.2v5.2H188.16V173ZM73.67,173H37.24V74.08H73.67Zm31.23,0h-13v-39h13Zm18.22,0h-13v-39h13Zm13-104.09V173h-7.81v-39h2.6v-5.2H84.08v5.2h2.6v39H78.87V22h57.25ZM177.76,173H141.32V74.08h36.43Zm0,0"/><path class="cls-1" d="M99.69,74.08H115.3V58.47h15.61V42.85H115.3V27.24H99.69V42.85H84.08V58.47H99.69ZM89.28,53.26v-5.2h15.61V32.45h5.2V48.06h15.61v5.2H110.1V68.88h-5.2V53.26Zm0,0"/><path class="cls-1" d="M104.89,79.28H84.08V94.9h20.82Zm-5.2,10.41H89.28v-5.2H99.69Zm0,0"/><path class="cls-1" d="M110.1,94.9h20.82V79.28H110.1Zm5.2-10.41h10.41v5.2H115.3Zm0,0"/><path class="cls-1" d="M104.89,100.1H84.08v15.61h20.82Zm-5.2,10.41H89.28v-5.2H99.69Zm0,0"/><path class="cls-1" d="M110.1,115.72h20.82V100.1H110.1Zm5.2-10.41h10.41v5.2H115.3Zm0,0"/><path class="cls-1" d="M169.95,79.28H149.13V94.9h20.82Zm-5.2,10.41H154.34v-5.2h10.41Zm0,0"/><path class="cls-1" d="M169.95,100.1H149.13v15.61h20.82Zm-5.2,10.41H154.34v-5.2h10.41Zm0,0"/><path class="cls-1" d="M169.95,120.92H149.13v15.61h20.82Zm-5.2,10.41H154.34v-5.2h10.41Zm0,0"/><path class="cls-1" d="M169.95,141.74H149.13v15.61h20.82Zm-5.2,10.41H154.34v-5.2h10.41Zm0,0"/><path class="cls-1" d="M65.86,79.28H45V94.9H65.86Zm-5.2,10.41H50.25v-5.2H60.66Zm0,0"/><path class="cls-1" d="M65.86,100.1H45v15.61H65.86Zm-5.2,10.41H50.25v-5.2H60.66Zm0,0"/><path class="cls-1" d="M65.86,120.92H45v15.61H65.86Zm-5.2,10.41H50.25v-5.2H60.66Zm0,0"/><path class="cls-1" d="M65.86,141.74H45v15.61H65.86Zm-5.2,10.41H50.25v-5.2H60.66Zm0,0"/></svg>